<?xml version="1.0" encoding="UTF-8" ?>
<!DOCTYPE svg PUBLIC "-//W3C//DTD SVG 1.1//EN" "http://www.w3.org/Graphics/SVG/1.1/DTD/svg11.dtd">
<svg width="375pt" height="73pt" viewBox="0 0 375 73" version="1.1" xmlns="http://www.w3.org/2000/svg">
<path fill="#ffffff" d=" M 0.00 0.00 L 375.00 0.00 L 375.00 73.00 L 0.00 73.00 L 0.00 0.00 Z" />
<path fill="#01582b" d=" M 92.61 11.31 C 99.09 11.32 105.56 11.28 112.04 11.31 C 115.49 11.30 119.14 11.86 121.92 14.07 C 129.33 19.90 127.51 34.26 117.88 36.70 C 111.02 38.13 103.92 37.11 96.96 37.41 C 96.96 43.94 96.96 50.47 96.96 57.00 C 95.51 57.00 94.06 57.00 92.61 57.00 C 92.61 41.77 92.61 26.54 92.61 11.31 Z" />
<path fill="#01582b" d=" M 165.91 11.31 C 167.25 11.30 168.59 11.30 169.93 11.30 C 169.94 26.54 169.93 41.77 169.94 57.00 C 168.59 57.00 167.25 57.00 165.91 57.00 C 165.91 41.77 165.91 26.54 165.91 11.31 Z" />
<path fill="#01582b" d=" M 202.69 11.31 C 205.46 11.30 208.23 11.30 211.00 11.30 C 214.84 23.42 218.66 35.54 222.51 47.64 C 226.47 35.54 230.37 23.42 234.29 11.30 C 237.00 11.30 239.70 11.30 242.41 11.31 C 237.22 26.54 232.01 41.77 226.81 57.00 C 223.84 57.00 220.88 57.00 217.91 57.00 C 212.84 41.77 207.76 26.54 202.69 11.31 Z" />
<path fill="#01582b" d=" M 27.53 11.27 L 28.80 11.32 C 28.78 18.32 28.85 25.32 28.75 32.33 C 30.62 24.86 39.57 21.40 46.26 24.59 C 50.23 26.35 52.55 30.73 52.44 34.98 C 52.54 42.32 52.44 49.66 52.48 57.00 C 52.16 57.00 51.52 57.00 51.20 57.00 C 51.12 49.32 51.37 41.63 51.09 33.96 C 50.99 29.11 46.78 24.87 41.92 24.76 C 35.54 23.72 29.79 29.33 29.18 35.46 C 28.37 42.60 28.99 49.82 28.80 57.00 L 27.52 57.00 C 27.53 41.76 27.51 26.51 27.53 11.27 Z" />
<path fill="#01582b" d=" M 284.03 11.30 C 286.46 11.30 288.89 11.30 291.32 11.31 C 291.32 13.61 291.32 15.91 291.32 18.21 C 288.89 18.21 286.46 18.21 284.03 18.21 C 284.03 15.91 284.03 13.61 284.03 11.30 Z" />
<path fill="#01582b" d=" M 14.77 24.02 C 14.99 20.31 14.00 16.31 15.76 12.86 C 16.18 16.59 16.03 20.35 16.03 24.10 C 18.51 24.10 21.00 24.10 23.48 24.11 C 23.48 24.43 23.48 25.06 23.48 25.38 C 21.00 25.38 18.52 25.38 16.04 25.38 C 16.05 33.63 16.01 41.87 16.04 50.11 C 16.05 51.98 16.21 54.25 18.03 55.32 C 20.04 55.72 22.10 55.76 24.12 56.06 C 21.76 57.38 18.55 57.40 16.39 55.67 C 14.61 53.90 14.87 51.21 14.75 48.92 C 14.77 41.10 14.75 33.28 14.78 25.46 C 12.41 25.40 10.04 25.38 7.70 24.98 C 9.90 23.90 12.39 24.11 14.77 24.02 Z" />
<path fill="#ffffff" d=" M 96.96 15.01 C 102.33 15.11 107.72 14.79 113.08 15.16 C 116.49 15.30 120.04 17.06 121.35 20.36 C 122.38 23.78 122.38 28.05 119.76 30.78 C 117.53 33.15 114.10 33.61 111.01 33.69 C 106.33 33.76 101.64 33.68 96.96 33.71 C 96.96 27.48 96.96 21.25 96.96 15.01 Z" />
<path fill="#01582b" d=" M 62.94 26.97 C 68.17 21.91 77.55 22.24 82.32 27.76 C 85.56 31.27 86.30 36.20 86.50 40.78 C 77.29 40.83 68.07 40.79 58.86 40.81 C 59.37 44.64 59.54 48.83 62.05 52.00 C 66.26 57.64 75.19 57.65 80.50 53.61 C 83.36 51.37 83.64 47.46 85.95 44.82 C 85.50 47.68 84.93 50.73 82.85 52.91 C 79.31 57.27 72.99 58.32 67.73 57.22 C 63.03 56.22 59.64 52.07 58.52 47.55 C 56.68 40.58 57.46 32.16 62.94 26.97 Z" />
<path fill="#01582b" d=" M 138.64 24.53 C 143.19 22.60 148.71 22.49 153.22 24.64 C 156.04 25.85 157.61 28.93 157.84 31.89 C 158.36 38.94 157.56 46.04 158.31 53.08 C 159.45 53.27 160.59 53.47 161.73 53.67 C 161.65 54.81 161.57 55.95 161.50 57.09 C 159.80 56.94 158.06 56.95 156.41 56.46 C 154.49 55.56 154.61 53.12 154.09 51.39 C 150.46 57.67 141.92 59.55 135.63 56.34 C 130.19 53.60 129.39 44.88 134.32 41.27 C 139.75 37.64 146.74 38.86 152.60 36.64 C 155.29 33.81 153.67 28.13 149.86 27.10 C 146.39 26.03 142.27 26.14 139.19 28.24 C 137.29 29.58 136.94 32.01 136.33 34.08 C 134.98 34.08 133.64 34.08 132.30 34.07 C 132.86 30.18 134.78 26.08 138.64 24.53 Z" />
<path fill="#01582b" d=" M 256.44 23.58 C 263.34 21.87 271.69 24.17 275.28 30.69 C 279.20 38.00 278.54 48.39 272.08 54.08 C 265.58 59.46 254.82 59.17 248.87 53.08 C 240.65 44.29 243.65 26.24 256.44 23.58 Z" />
<path fill="#01582b" d=" M 301.41 29.47 C 306.13 22.34 316.61 21.39 323.64 25.48 C 327.03 27.47 328.98 31.13 329.62 34.92 C 327.22 34.98 324.82 34.99 322.42 35.01 C 321.44 31.25 318.08 28.20 314.00 28.87 C 309.56 28.83 306.36 32.87 305.86 37.00 C 305.16 41.65 305.58 47.36 309.56 50.50 C 311.87 52.55 315.50 52.50 318.14 51.12 C 320.63 49.84 321.46 46.98 322.40 44.57 C 324.76 44.58 327.13 44.59 329.51 44.60 C 328.43 48.87 326.65 53.38 322.72 55.78 C 315.51 59.87 304.79 58.02 300.62 50.44 C 297.20 44.01 297.48 35.62 301.41 29.47 Z" />
<path fill="#01582b" d=" M 339.43 26.48 C 345.31 21.51 355.00 22.01 360.24 27.71 C 364.02 31.53 365.19 37.10 364.99 42.32 C 356.78 42.39 348.58 42.28 340.38 42.38 C 340.95 45.40 341.62 48.86 344.46 50.61 C 348.93 53.86 355.72 51.76 357.74 46.63 C 360.02 46.63 362.30 46.64 364.59 46.66 C 361.82 58.15 345.50 61.57 337.69 53.23 C 331.18 45.83 331.81 32.90 339.43 26.48 Z" />
<path fill="#01582b" d=" M 174.13 23.97 C 175.56 23.98 177.00 23.99 178.44 24.02 C 182.04 33.39 185.67 42.76 189.30 52.13 C 192.69 42.76 196.08 33.38 199.46 24.00 C 200.80 23.99 202.15 23.98 203.50 23.97 C 198.77 36.48 194.08 49.01 189.34 61.51 C 188.10 64.29 186.87 67.78 183.63 68.73 C 181.62 69.19 179.53 69.06 177.49 69.13 C 177.45 68.29 177.36 66.59 177.32 65.74 C 179.55 65.52 182.50 66.19 184.01 64.05 C 185.58 61.92 186.35 59.34 187.33 56.92 C 182.92 45.94 178.53 34.95 174.13 23.97 Z" />
<path fill="#01582b" d=" M 284.03 23.92 C 286.46 23.92 288.89 23.92 291.32 23.92 C 291.32 34.94 291.32 45.97 291.32 57.00 C 288.89 57.00 286.46 57.00 284.03 57.00 C 284.03 45.97 284.03 34.94 284.03 23.92 Z" />
<path fill="#ffffff" d=" M 63.87 27.81 C 68.45 23.46 76.51 23.61 80.94 28.11 C 83.70 31.25 84.96 35.41 85.26 39.52 C 76.42 39.54 67.58 39.54 58.75 39.52 C 59.25 35.22 60.80 30.95 63.87 27.81 Z" />
<path fill="#ffffff" d=" M 258.26 29.20 C 264.54 26.94 270.34 33.06 270.28 39.11 C 271.35 45.53 266.35 53.72 259.06 51.92 C 249.42 49.14 249.09 32.85 258.26 29.20 Z" />
<path fill="#ffffff" d=" M 340.36 37.51 C 340.93 32.68 344.99 28.04 350.21 28.95 C 354.62 29.29 356.98 33.60 357.74 37.50 C 351.95 37.58 346.15 37.57 340.36 37.51 Z" />
<path fill="#ffffff" d=" M 136.37 44.54 C 141.39 40.46 148.36 41.68 154.06 39.21 C 153.83 42.59 154.51 46.40 152.44 49.35 C 149.58 54.03 142.62 56.03 137.88 53.14 C 135.14 51.40 134.11 47.04 136.37 44.54 Z" />
</svg>
